<svg fill="none" xmlns="http://www.w3.org/2000/svg" viewBox="0 0 129 69">
  <g clip-path="url(#uAn_ksCUK3wAa)">
    <path d="M107.379 21.704c2.312-3.798-3.037-12.706-10.108-17.228-7.977-5.064-20.397-6.059-23.388-1.04-2.856 4.703 3.354 13.475 7.343 17.454 1.858 1.809 4.306 4.205 8.204 5.064 3.535.769 6.481-.045 11.513-1.492 3.807-1.085 5.756-1.628 6.436-2.758z" fill="#C24A75"/>
    <path d="M104.116 25.547c-7.706 1.266-9.02 2.306-9.746 3.165-.77.905-1.088 1.764-1.314 2.442-1.45 4.024-.453 10.174 2.946 11.575 3.762 1.538 8.658-3.39 10.743-6.782 2.221-3.617 3.444-9.043 1.45-10.536-.408-.316-.816-.406-4.079.136z" fill="#515C86"/>
    <path d="M111.685 20.573c-2.493-2.577-1.722-10.219 1.36-14.74 3.445-5.064 10.833-7.687 14.097-4.25 3.082 3.21 1.767 10.851.408 14.514-.635 1.673-1.451 3.843-3.627 5.11-1.949 1.13-3.988.904-7.524.587-2.629-.316-3.989-.452-4.714-1.22z" fill="#FBAE42"/>
    <path d="M114.767 23.015c5.122-.18 6.21.407 6.89.995.725.588 1.179 1.22 1.496 1.673 2.04 2.894 3.173 7.777 1.45 9.36-1.858 1.718-6.255-1.312-8.521-3.618-2.402-2.441-4.669-6.466-3.898-7.913.181-.27.453-.407 2.583-.497z" fill="#64BF79"/>
    <path d="M119.391 53.084c-1.405 0-2.629.407-3.626 1.266-.998.859-1.587 1.944-1.813 3.346h10.833c-.182-1.357-.771-2.487-1.768-3.346-.952-.814-2.176-1.266-3.626-1.266zM129 59.369c0 .316-.045.769-.091 1.311h-14.957c.271 1.402.951 2.532 2.039 3.346 1.088.814 2.493 1.221 4.125 1.221 2.085 0 3.807-.678 5.167-2.08l2.403 2.758c-.862 1.04-1.95 1.809-3.264 2.306-1.314.543-2.765.769-4.442.769-2.085 0-3.943-.407-5.53-1.266a8.795 8.795 0 01-3.671-3.482c-.862-1.492-1.315-3.165-1.315-5.019s.408-3.527 1.269-5.019a9.024 9.024 0 013.536-3.481c1.496-.814 3.173-1.266 5.076-1.266 1.859 0 3.536.407 4.986 1.22 1.451.814 2.584 1.99 3.445 3.437.816 1.582 1.224 3.3 1.224 5.245zM99.855 69c-1.541 0-3.037-.18-4.533-.588-1.496-.407-2.674-.904-3.535-1.537l1.722-3.391c.861.587 1.904 1.04 3.082 1.356a12.35 12.35 0 003.536.498c2.674 0 3.989-.679 3.989-2.08 0-.679-.318-1.13-.998-1.402-.679-.272-1.767-.498-3.263-.769-1.587-.226-2.856-.497-3.853-.814a5.991 5.991 0 01-2.584-1.628c-.725-.768-1.087-1.853-1.087-3.21 0-1.809.77-3.255 2.266-4.34 1.496-1.086 3.535-1.628 6.119-1.628 1.315 0 2.629.135 3.944.452 1.314.316 2.357.678 3.218 1.175l-1.723 3.392c-1.631-.95-3.445-1.402-5.439-1.402-1.314 0-2.312.18-2.991.588-.68.407-.998.904-.998 1.537 0 .723.363 1.22 1.088 1.492.725.317 1.859.588 3.354.814 1.541.226 2.765.497 3.762.814a5.749 5.749 0 012.539 1.582c.68.724 1.042 1.764 1.042 3.12 0 1.764-.77 3.21-2.311 4.25-1.587 1.176-3.672 1.719-6.346 1.719zM87.163 46.618c-.816 0-1.495-.271-2.04-.769-.543-.497-.815-1.13-.815-1.899 0-.769.272-1.402.816-1.899.544-.497 1.224-.769 2.04-.769.815 0 1.495.227 2.04.724.543.497.815 1.085.815 1.854a2.73 2.73 0 01-.816 1.99c-.499.497-1.224.768-2.04.768zm-2.266 3.12h4.442v18.99h-4.442v-18.99zm-8.159 2.939c0-1.583-.544-2.803-1.586-3.663-1.043-.859-2.584-1.266-4.624-1.266H65.09v9.948h5.44c2.04 0 3.535-.452 4.623-1.311 1.088-.86 1.586-2.08 1.586-3.708zm.136 16.097l-5.122-7.28c-.226.045-.544.045-.952.045h-5.62v7.28h-4.623V43.814h10.289c2.175 0 4.034.362 5.666 1.086 1.586.723 2.855 1.718 3.671 3.074.861 1.312 1.27 2.894 1.27 4.748s-.454 3.482-1.36 4.838c-.907 1.357-2.222 2.351-3.944 3.03l5.757 8.184h-5.032zm-29.689-2.08c1.315 0 2.538-.317 3.581-.904a6.227 6.227 0 002.493-2.578c.59-1.13.907-2.396.907-3.798 0-1.402-.318-2.713-.907-3.798-.59-1.13-1.405-1.99-2.493-2.577-1.042-.588-2.266-.905-3.58-.905-1.315 0-2.54.317-3.582.905a6.226 6.226 0 00-2.493 2.577c-.589 1.13-.906 2.396-.906 3.798 0 1.402.317 2.713.906 3.798a6.226 6.226 0 002.493 2.578c1.043.587 2.267.904 3.581.904zm0 2.26c-1.813 0-3.445-.406-4.895-1.22-1.45-.814-2.584-1.944-3.445-3.391-.816-1.447-1.27-3.075-1.27-4.929 0-1.809.409-3.482 1.27-4.928.816-1.447 1.994-2.578 3.445-3.392 1.45-.813 3.082-1.22 4.895-1.22 1.813 0 3.445.407 4.895 1.22a8.743 8.743 0 013.4 3.392c.816 1.447 1.224 3.074 1.224 4.928 0 1.809-.408 3.482-1.224 4.929a8.743 8.743 0 01-3.4 3.39 10.33 10.33 0 01-4.895 1.222zM37.666 50.01l-8.34 18.72h-2.583l-8.295-18.72h2.629l7.026 15.962 7.116-15.962h2.447zm-28.51 2.035c-1.813 0-3.309.588-4.533 1.718-1.223 1.13-1.903 2.668-2.085 4.522h13.326c-.18-1.854-.86-3.346-2.085-4.522-1.269-1.13-2.765-1.718-4.623-1.718zm9.065 8.139H2.538c.136 1.944.907 3.527 2.267 4.702 1.36 1.221 3.082 1.809 5.122 1.809a8.333 8.333 0 003.218-.633c.997-.407 1.813-1.04 2.538-1.854l1.405 1.628a7.549 7.549 0 01-3.127 2.26c-1.27.543-2.63.77-4.125.77-1.95 0-3.626-.408-5.122-1.221-1.496-.814-2.629-1.945-3.49-3.392C.408 62.851 0 61.222 0 59.414c0-1.809.408-3.482 1.179-4.928.815-1.447 1.903-2.578 3.263-3.392 1.405-.813 2.946-1.22 4.714-1.22 1.722 0 3.309.407 4.669 1.22 1.36.814 2.447 1.945 3.263 3.346.77 1.447 1.179 3.075 1.179 4.929l-.046.814z" fill="#404041"/>
    <path d="M68.443 24.281c0-.407-.136-.768-.407-1.04-.273-.271-.635-.452-.998-.452-.408 0-.725.136-1.042.452-.272.271-.408.633-.408 1.04v9.495c0 .407.136.77.408 1.04.272.272.634.453 1.042.453.408 0 .725-.136.998-.453.271-.27.407-.633.407-1.04v-9.495zm-1.36-4.115c1.088 0 2.04.407 2.81 1.221a4.169 4.169 0 011.18 2.94v9.495c0 1.175-.409 2.125-1.18 2.939-.77.814-1.722 1.22-2.81 1.22-1.087 0-2.04-.406-2.81-1.22s-1.133-1.809-1.133-2.94v-9.495c0-1.175.408-2.125 1.179-2.939.725-.814 1.677-1.22 2.765-1.22zM55.572 35.178h1.495c.408 0 .726-.135.998-.452.272-.316.407-.633.407-1.04v-9.134c0-.407-.135-.768-.407-1.085a1.287 1.287 0 00-.998-.452h-1.495v12.163zm5.394-1.537c0 1.13-.408 2.125-1.179 2.939-.77.814-1.677 1.22-2.81 1.22h-3.944V20.394h3.944c1.088 0 2.04.406 2.81 1.22s1.133 1.809 1.133 2.94v9.088h.046zm-16-13.248l3.353 11.665V20.392h2.493v17.409h-2.72l-3.444-11.123V37.8h-2.493V20.392h2.81zm-9.474 3.979l-.952 6.827h1.858l-.906-6.827zm-1.315 9.404l-.634 4.025h-2.63l2.811-17.363h3.445l2.81 17.363H37.35l-.589-4.025h-2.584zM23.48 27.491h1.043c.77 0 1.314-.407 1.54-1.175a3.95 3.95 0 00.137-1.085c0-.724-.181-1.266-.499-1.628-.317-.362-.725-.498-1.223-.498h-1.043v4.386h.045zm0 7.687h1.043c.861 0 1.45-.452 1.768-1.356.136-.317.18-.678.18-1.085 0-.95-.18-1.673-.543-2.126-.317-.407-.77-.587-1.405-.587H23.48v5.154zm-2.72 2.623V20.392h3.763c.997 0 1.904.272 2.674.814.68.453 1.179 1.176 1.45 2.17.182.498.227 1.131.227 1.855 0 1.175-.317 2.08-.906 2.803-.272.317-.544.543-.862.678.544.226 1.043.679 1.405 1.312.272.452.454 1.04.59 1.718.045.361.09.768.09 1.22 0 1.086-.18 2.035-.589 2.804-.317.588-.725 1.085-1.314 1.447-.635.407-1.27.633-1.904.633H20.76v-.045zm-5.121-13.203c0-.995-.499-1.492-1.45-1.492H12.69v5.561h1.542c.407 0 .725-.136.997-.452.272-.317.408-.633.408-1.085v-2.532zm-1.496-4.206c1.405 0 2.448.407 3.082 1.221.59.724.861 1.673.861 2.94v2.531c0 1.221-.453 2.261-1.36 3.12l1.859 7.597h-2.72l-1.54-6.557h-1.634v6.557h-2.494V20.392h3.944zM3.989 37.983c-1.088 0-2.04-.407-2.81-1.221C.363 35.947 0 34.997 0 33.867V20.393h2.448v13.429c0 .407.136.768.408 1.085.272.271.634.452 1.042.452.408 0 .725-.136.997-.452.272-.271.408-.633.408-1.085v-13.43h2.63v13.43c0 1.175-.409 2.125-1.18 2.939-.725.814-1.676 1.22-2.764 1.22z" fill="#404968"/>
  </g>
  <defs>
    <clipPath id="uAn_ksCUK3wAa">
      <path fill="#fff" d="M0 0h129v69H0z"/>
    </clipPath>
  </defs>
</svg>
