<svg fill="none" xmlns="http://www.w3.org/2000/svg" viewBox="0 0 88 107">
  <path fill-rule="evenodd" clip-rule="evenodd" d="M0 0l18.084 10.846v66.087H0V0z" fill="#8A73B4"/>
  <path fill-rule="evenodd" clip-rule="evenodd" d="M74.994 0L56.91 10.846v.002-.002 66.087h18.084V0z" fill="#A3CF62"/>
  <path fill-rule="evenodd" clip-rule="evenodd" d="M18.084 0l19.412 11.644-9.04 5.424-10.372-6.222V0z" fill="#F04E5E"/>
  <path fill-rule="evenodd" clip-rule="evenodd" d="M56.91 0L37.497 11.644l9.043 5.424 10.372-6.222V0z" fill="#44C8F5"/>
  <path fill-rule="evenodd" clip-rule="evenodd" d="M37.498 11.644l-9.041 5.424v59.864h18.084V17.068l-9.043-5.424z" fill="#404968"/>
  <path d="M72.23 84.015a1.564 1.564 0 00-.93-1.463 1.483 1.483 0 00-1.66.342 1.547 1.547 0 00-.45 1.121v10.053a1.547 1.547 0 00.45 1.123 1.486 1.486 0 002.15 0 1.57 1.57 0 00.44-1.123V84.015zm-1.437-4.352a3.955 3.955 0 012.975 1.291 4.35 4.35 0 011.225 3.11v10.039a4.325 4.325 0 01-1.232 3.117 4.069 4.069 0 01-5.938 0 4.364 4.364 0 01-1.22-3.11V84.064a4.325 4.325 0 011.236-3.117 3.935 3.935 0 012.954-1.284zM58.635 95.53h1.607a1.374 1.374 0 001.066-.48c.285-.303.44-.705.435-1.12V84.3a1.603 1.603 0 00-.442-1.132 1.395 1.395 0 00-1.059-.466h-1.6l-.007 12.826zm5.687-1.656a4.379 4.379 0 01-1.221 3.119 3.9 3.9 0 01-2.945 1.29H55.99V79.87h4.166a3.902 3.902 0 012.952 1.291 4.363 4.363 0 011.214 3.099v9.612zM47.45 79.87l3.517 12.353V79.87h2.646v18.405h-2.837l-3.65-11.78v11.78h-2.644V79.87h2.968zm-9.988 4.234l-.981 7.23h1.965l-.984-7.23zm-1.381 9.936l-.65 4.235h-2.753l2.986-18.374h3.645l2.942 18.374h-2.79l-.617-4.235H36.08zm-11.302-6.65h1.102c.82 0 1.367-.422 1.645-1.267.111-.378.163-.77.153-1.163 0-.768-.176-1.348-.528-1.74a1.628 1.628 0 00-1.27-.542H24.78v4.712zm0 8.14h1.102c.892 0 1.512-.482 1.861-1.448.128-.368.19-.755.181-1.144 0-1.022-.185-1.77-.558-2.238a1.751 1.751 0 00-1.477-.644h-1.102l-.007 5.475zm-2.854 2.745V79.87h3.954a4.868 4.868 0 012.828.868c.721.489 1.235 1.246 1.54 2.272a6.7 6.7 0 01.254 1.952c0 1.24-.31 2.229-.93 2.965a2.686 2.686 0 01-.931.72 3.14 3.14 0 011.495 1.395c.304.568.507 1.184.6 1.82.069.424.102.852.098 1.28a6.376 6.376 0 01-.63 2.963 3.831 3.831 0 01-1.396 1.526c-.59.406-1.286.63-2.002.647l-4.88-.003zM16.529 84.32c0-1.067-.506-1.601-1.517-1.603H13.41v5.901h1.602a1.41 1.41 0 001.072-.465 1.582 1.582 0 00.445-1.133v-2.7zm-1.582-4.42c1.476 0 2.562.426 3.256 1.278.61.744.914 1.78.912 3.107v2.672a4.38 4.38 0 01-1.423 3.29l1.963 8.024h-2.852l-1.614-6.92H13.41v6.92h-2.645V79.896l4.182.005zM4.2 98.483a3.953 3.953 0 01-2.973-1.276A4.321 4.321 0 01.001 94.11V79.89h2.595v14.19a1.56 1.56 0 00.447 1.126 1.454 1.454 0 001.08.466 1.43 1.43 0 001.072-.466c.29-.302.449-.707.441-1.126V79.891H8.4V94.11a4.273 4.273 0 01-1.235 3.114 3.99 3.99 0 01-2.966 1.258z" fill="#404968"/>
  <path fill-rule="evenodd" clip-rule="evenodd" d="M28.455 76.932H18.084V10.846l10.371 6.222v59.864z" fill="#972545"/>
  <path fill-rule="evenodd" clip-rule="evenodd" d="M46.541 76.932h10.371V10.846l-10.371 6.222v59.864z" fill="#00B26B"/>
  <path d="M74.974 102.52h-1.242v3.603h-.37v-3.603h-1.24v-.316h2.852v.316zm-3.16 2.559a1.002 1.002 0 01-.466.898c-.29.168-.623.249-.958.232a1.508 1.508 0 01-1.089-.37 1.203 1.203 0 01-.349-.905h.36a.972.972 0 00.338.724c.228.167.507.249.788.232.28.02.555-.07.768-.251a.691.691 0 00.233-.537.658.658 0 00-.105-.388.854.854 0 00-.307-.254 7.403 7.403 0 00-.889-.254 2.666 2.666 0 01-.549-.19 1.053 1.053 0 01-.365-.296.983.983 0 01-.174-.597.906.906 0 01.337-.721c.28-.224.633-.336.991-.317.36-.02.715.103.986.342a1.08 1.08 0 01.33.824h-.346a.765.765 0 00-.3-.654 1.053 1.053 0 00-.656-.195 1.146 1.146 0 00-.712.197.653.653 0 00-.265.551.59.59 0 00.093.347c.078.102.18.182.298.233l1.47.442a.923.923 0 01.537.914v-.007zm-3.294 1.037h-2.661v-3.912h2.607v.316H66.23v1.414h2.019v.317h-2.02v1.558h2.292v.307zm-3.766-1.098a.658.658 0 00-.268-.6 1.621 1.621 0 00-.865-.174h-1.007v1.558h1.007c.307.027.616-.032.891-.172a.703.703 0 00.242-.605v-.007zm-.18-1.835a.565.565 0 00-.243-.519 1.779 1.779 0 00-.873-.151h-.844v1.414h.93c.289.027.578-.048.817-.211a.671.671 0 00.214-.526v-.007zm.55 1.812a1.049 1.049 0 01-.324.847 1.433 1.433 0 01-.95.274h-1.606v-3.912h1.396c.345-.026.69.063.979.253a.89.89 0 01.316.733.93.93 0 01-.163.565.733.733 0 01-.465.279.913.913 0 01.805.968l.012-.007zm-5.04 1.121h-2.661v-3.912h2.607v.316h-2.238v1.414h2.02v.317h-2.02v1.558h2.291v.307zm-3.522 0h-.37v-1.914h-2.326v1.921h-.37v-3.919h.37v1.681h2.326v-1.681h.37v3.912zm-3.563-3.603h-1.242v3.603h-.37v-3.596h-1.242v-.316h2.854v.309zm-5.094 1.628c.005-.26-.03-.52-.105-.77a1.272 1.272 0 00-.302-.521 1.046 1.046 0 00-.465-.272 2.602 2.602 0 00-.698-.074h-.903v3.289h.959a2.02 2.02 0 00.646-.091c.163-.051.312-.139.435-.258.15-.153.26-.341.319-.547a2.58 2.58 0 00.123-.739l-.01-.017zm.37 0c0 .68-.176 1.195-.528 1.547a1.314 1.314 0 01-.526.316c-.255.076-.52.11-.786.103h-1.363v-3.903h1.395c.256-.005.51.027.756.095.209.065.398.18.552.335.172.18.3.399.372.637.089.287.132.586.128.887v-.017zm-3.74 1.966h-2.47v-3.903h.37v3.605h2.093l.007.298zm-3.466 0h-.365v-3.903h.37l-.005 3.903zm-1.37-1.48a1.618 1.618 0 01-.39 1.203 1.514 1.514 0 01-1.12.395c-.392.025-.779-.1-1.083-.349-.294-.265-.44-.675-.44-1.23v-2.442h.37v2.351a1.56 1.56 0 00.279 1.038 1.1 1.1 0 00.863.318 1.11 1.11 0 00.849-.283c.204-.214.304-.566.304-1.056v-2.368h.373l-.005 2.423zm-4.15.382a.663.663 0 00-.265-.575 1.631 1.631 0 00-.865-.174h-1.007v1.558h1.012c.306.028.614-.032.888-.172a.695.695 0 00.238-.621v-.016zm-.179-1.835a.561.561 0 00-.232-.519 1.788 1.788 0 00-.875-.151h-.842v1.414h.93a1.24 1.24 0 00.817-.212.653.653 0 00.202-.516v-.016zm.552 1.812a1.05 1.05 0 01-.326.846c-.273.202-.61.299-.949.275h-1.605v-3.903h1.396a1.57 1.57 0 01.981.253.89.89 0 01.314.733.91.91 0 01-.162.565.724.724 0 01-.466.279.916.916 0 01.807.968l.01-.016zm-5.482-.835a1.951 1.951 0 00-.387-1.273 1.326 1.326 0 00-1.077-.465 1.282 1.282 0 00-1.088.521 1.98 1.98 0 00-.36 1.219c-.02.43.096.856.332 1.216a1.304 1.304 0 001.133.533 1.287 1.287 0 001.116-.544c.231-.353.347-.769.33-1.191v-.016zm.37 0c.02.504-.129 1-.424 1.409a1.86 1.86 0 01-2.735.084 2.533 2.533 0 01-.042-2.945 1.655 1.655 0 011.36-.614 1.692 1.692 0 011.373.598c.33.423.497.952.467 1.489v-.021zm-4.01-1.652h-1.243v3.603h-.37v-3.582h-1.23v-.316h2.854l-.012.295zm-4.871 3.624h-.433l-2.251-3.417v3.415h-.382v-3.917h.419l2.265 3.424v-3.424h.373l.009 3.919zm-4.143-1.956a1.948 1.948 0 00-.386-1.272 1.32 1.32 0 00-1.079-.466 1.294 1.294 0 00-1.089.521 1.98 1.98 0 00-.346 1.212c-.02.431.096.856.333 1.217a1.305 1.305 0 001.13.532 1.292 1.292 0 001.096-.546 2.03 2.03 0 00.341-1.198zm.37 0c.02.504-.129 1-.423 1.409a1.853 1.853 0 01-2.735.084 2.201 2.201 0 01-.494-1.509 2.223 2.223 0 01.452-1.435 1.657 1.657 0 011.36-.608 1.692 1.692 0 011.373.598c.325.417.491.937.467 1.466v-.005zm-4.496 1.951h-.37v-3.914h.37v3.914zm-1.163-1.037a1 1 0 01-.465.898c-.29.169-.621.25-.956.232-.39.027-.776-.1-1.075-.353a1.207 1.207 0 01-.346-.905h.347a.99.99 0 00.337.723c.229.167.508.249.79.233.28.02.555-.07.768-.251a.71.71 0 00.233-.537.645.645 0 00-.107-.389.825.825 0 00-.307-.253 7.373 7.373 0 00-.886-.254 2.758 2.758 0 01-.552-.191 1.065 1.065 0 01-.367-.297.987.987 0 01-.172-.598.906.906 0 01.337-.721c.28-.222.634-.332.99-.31.361-.02.714.103.985.342a1.092 1.092 0 01.332.821h-.349a.771.771 0 00-.3-.653 1.047 1.047 0 00-.656-.196 1.168 1.168 0 00-.711.198.653.653 0 00-.266.551.59.59 0 00.094.347.778.778 0 00.3.233l1.47.442a.925.925 0 01.532.893v-.005zm-3.31 0a1.005 1.005 0 01-.465.898 1.72 1.72 0 01-.958.232 1.494 1.494 0 01-1.089-.369 1.207 1.207 0 01-.348-.905h.358a.99.99 0 00.34.723c.227.167.506.249.788.233.279.02.554-.07.767-.251a.705.705 0 00.233-.538.659.659 0 00-.105-.388.855.855 0 00-.31-.254 7.359 7.359 0 00-.885-.253 2.728 2.728 0 01-.55-.191 1.028 1.028 0 01-.36-.281.984.984 0 01-.174-.598.906.906 0 01.337-.721c.281-.222.634-.332.991-.31.36-.02.715.103.986.342a1.079 1.079 0 01.328.821h-.344a.764.764 0 00-.302-.653 1.047 1.047 0 00-.654-.196 1.154 1.154 0 00-.712.198.652.652 0 00-.265.551.611.611 0 00.09.347c.08.101.183.181.3.233l1.47.442a.925.925 0 01.533.893v-.005zm-4.11-.507l-.77-2.056-.767 2.056h1.538zm.956 1.544h-.381l-.454-1.218H3.41l-.465 1.23H2.57l1.54-3.919h.419l1.504 3.907zm-3.686-2.847a.635.635 0 00-.31-.588 1.351 1.351 0 00-.686-.151H.377v1.556h.86c.299.025.597-.04.859-.186a.742.742 0 00.25-.631zm.372.04a.929.929 0 01-.512.891 2.07 2.07 0 01-.97.202h-.86v1.731H0v-3.931h1.433c.368-.034.734.08 1.019.316a1.065 1.065 0 01.267.779v.012zM83.3 5.7h.084c.167 0 .233-.083.233-.257V.853l1.423 3.101a.482.482 0 00.495.36.49.49 0 00.496-.36l1.423-3.1v4.589c0 .174.075.258.233.258h.067c.168 0 .245-.084.245-.258V.558A.373.373 0 0087.594.2h-.119c-.293 0-.37.133-.495.428l-1.438 3.168L84.114.628C83.99.333 83.914.2 83.62.2h-.135a.374.374 0 00-.412.36v4.885c0 .175.068.258.233.258M77.98.753h1.707v4.69c0 .174.084.258.233.258h.09a.233.233 0 00.252-.258V.753h1.707c.167 0 .26-.083.26-.232V.477c0-.16-.093-.233-.26-.233h-3.99a.232.232 0 00-.257.233v.042c0 .151.09.235.258.235z" fill="#fff"/>
</svg>
