<svg fill="none" xmlns="http://www.w3.org/2000/svg" viewBox="0 0 75 90">
  <path fill-rule="evenodd" clip-rule="evenodd" d="M0 0l15.322 9.189v55.99H.001V0z" fill="#8A73B4"/>
  <path fill-rule="evenodd" clip-rule="evenodd" d="M63.539 0L48.217 9.189v.002-.002 55.99H63.54V0z" fill="#A3CF62"/>
  <path fill-rule="evenodd" clip-rule="evenodd" d="M15.322 0L31.77 9.865l-7.66 4.595-8.787-5.271V0z" fill="#F04E5E"/>
  <path fill-rule="evenodd" clip-rule="evenodd" d="M48.217 0L31.77 9.865l7.662 4.595 8.786-5.271V0z" fill="#44C8F5"/>
  <path fill-rule="evenodd" clip-rule="evenodd" d="M31.769 9.865l-7.66 4.595v50.72H39.43V14.46l-7.66-4.595z" fill="#404968"/>
  <path d="M61.196 71.18a1.327 1.327 0 00-.788-1.24 1.254 1.254 0 00-1.407.29 1.308 1.308 0 00-.38.95v8.517a1.311 1.311 0 00.38.952 1.26 1.26 0 001.822 0 1.33 1.33 0 00.373-.952V71.18zm-1.218-3.687a3.35 3.35 0 012.52 1.094 3.686 3.686 0 011.039 2.635v8.505a3.664 3.664 0 01-1.045 2.64 3.446 3.446 0 01-5.03 0 3.695 3.695 0 01-1.033-2.634v-8.511a3.663 3.663 0 011.046-2.641 3.335 3.335 0 012.503-1.088zm-10.3 13.442h1.361a1.165 1.165 0 00.903-.406c.241-.257.373-.598.368-.95v-8.156a1.358 1.358 0 00-.374-.96 1.183 1.183 0 00-.897-.394h-1.355l-.006 10.866zm4.818-1.403a3.71 3.71 0 01-1.035 2.642 3.303 3.303 0 01-2.495 1.094h-3.529v-15.6h3.53a3.305 3.305 0 012.5 1.094 3.696 3.696 0 011.029 2.625v8.145zM40.2 67.669l2.98 10.466V67.669h2.242v15.593h-2.404l-3.092-9.981v9.981h-2.24V67.669H40.2zm-8.462 3.586l-.831 6.127h1.665l-.834-6.127zm-1.17 8.419l-.55 3.588h-2.333l2.53-15.568h3.088l2.493 15.568h-2.365l-.522-3.588h-2.341zm-9.575-5.634h.933c.694 0 1.159-.358 1.394-1.074.094-.32.138-.652.13-.986 0-.65-.15-1.141-.448-1.474a1.38 1.38 0 00-1.076-.459h-.933v3.993zm0 6.897h.933c.756 0 1.281-.41 1.577-1.228.108-.312.16-.64.154-.97 0-.865-.158-1.5-.473-1.895a1.484 1.484 0 00-1.252-.546H21l-.005 4.639zm-2.418 2.325V67.669h3.35a4.125 4.125 0 012.396.735c.61.413 1.046 1.055 1.304 1.925.153.537.225 1.095.215 1.653 0 1.051-.263 1.889-.788 2.513a2.265 2.265 0 01-.788.609 2.66 2.66 0 011.267 1.182 4.74 4.74 0 01.508 1.543c.058.358.086.72.083 1.084a5.4 5.4 0 01-.534 2.51 3.246 3.246 0 01-1.182 1.293 3.12 3.12 0 01-1.697.548l-4.134-.002zm-4.572-11.824c0-.904-.428-1.356-1.285-1.357H11.36v4.999h1.358a1.195 1.195 0 00.908-.394 1.34 1.34 0 00.377-.96v-2.288zm-1.34-3.744c1.25 0 2.17.36 2.759 1.082.516.63.773 1.508.772 2.633v2.264a3.71 3.71 0 01-1.206 2.787l1.663 6.798h-2.416l-1.367-5.862h-1.506v5.862H9.12V67.69l3.543.004zM3.558 83.437a3.351 3.351 0 01-2.519-1.081 3.662 3.662 0 01-1.038-2.623V67.686H2.2v12.021a1.322 1.322 0 00.378.954 1.232 1.232 0 00.915.394 1.212 1.212 0 00.908-.394c.246-.256.38-.6.374-.954v-12.02h2.341v12.046A3.62 3.62 0 016.07 82.37a3.379 3.379 0 01-2.512 1.066z" fill="#404968"/>
  <path fill-rule="evenodd" clip-rule="evenodd" d="M24.109 65.18h-8.787V9.189l8.787 5.271v50.72z" fill="#972545"/>
  <path fill-rule="evenodd" clip-rule="evenodd" d="M39.43 65.18h8.787V9.189L39.43 14.46v50.72z" fill="#00B26B"/>
  <path d="M63.521 86.858H62.47v3.053h-.314v-3.053h-1.05v-.268h2.416v.268zm-2.678 2.168a.852.852 0 01-.394.76 1.465 1.465 0 01-.812.198 1.27 1.27 0 01-.922-.314 1.017 1.017 0 01-.296-.766h.306a.825.825 0 00.285.613c.193.14.43.21.668.197.237.017.47-.06.65-.213a.592.592 0 00.198-.455.56.56 0 00-.089-.33.733.733 0 00-.26-.214 6.27 6.27 0 00-.753-.215 2.272 2.272 0 01-.465-.162.888.888 0 01-.31-.25.834.834 0 01-.147-.506.767.767 0 01.286-.611c.237-.19.536-.285.84-.268.305-.017.605.087.835.29a.915.915 0 01.28.697h-.294a.652.652 0 00-.254-.554.894.894 0 00-.556-.165.973.973 0 00-.603.167.55.55 0 00-.225.467.5.5 0 00.08.294.64.64 0 00.251.197l1.246.374a.788.788 0 01.455.775v-.006zm-2.79.879h-2.255V86.59h2.21v.268h-1.896v1.198h1.71v.268h-1.71v1.32h1.94v.26zm-3.19-.93a.559.559 0 00-.227-.509 1.38 1.38 0 00-.733-.147h-.854v1.32h.854c.26.023.521-.028.754-.146a.591.591 0 00.205-.512v-.006zm-.152-1.555a.477.477 0 00-.207-.44 1.506 1.506 0 00-.74-.128h-.715v1.198h.788c.245.023.49-.04.692-.179a.565.565 0 00.181-.445v-.006zm.465 1.535a.89.89 0 01-.274.717 1.214 1.214 0 01-.806.233h-1.36V86.59h1.182a1.33 1.33 0 01.83.215.748.748 0 01.268.62.788.788 0 01-.138.48.622.622 0 01-.394.236.773.773 0 01.682.82l.01-.006zm-4.27.95H48.65V86.59h2.209v.268h-1.896v1.198h1.71v.268h-1.71v1.32h1.941v.26zm-2.984 0h-.314v-1.622h-1.97v1.628h-.313v-3.32h.313v1.424h1.97V86.59h.314v3.315zm-3.02-3.053H43.85v3.053h-.313v-3.047h-1.052v-.268h2.418v.262zm-4.315 1.38a2.13 2.13 0 00-.089-.653 1.075 1.075 0 00-.256-.44.88.88 0 00-.394-.231 2.22 2.22 0 00-.591-.064h-.765v2.787h.812c.186.004.37-.022.548-.077a.932.932 0 00.369-.219c.127-.13.22-.288.27-.463.065-.203.1-.414.104-.626l-.008-.014zm.313 0c0 .575-.149 1.012-.447 1.31a1.115 1.115 0 01-.445.268 2.144 2.144 0 01-.666.087h-1.155V86.59h1.182a2.22 2.22 0 01.64.081c.177.055.338.152.468.284.146.153.254.338.315.54.076.243.112.496.108.75v-.013zm-3.168 1.665h-2.093V86.59h.313v3.055h1.774l.006.252zm-2.936 0h-.31V86.59h.314l-.004 3.307zm-1.161-1.253a1.368 1.368 0 01-.331 1.018 1.284 1.284 0 01-.948.335 1.323 1.323 0 01-.918-.295c-.249-.225-.373-.572-.373-1.043V86.59h.314v1.993a1.32 1.32 0 00.236.878.927.927 0 00.731.27.949.949 0 00.72-.24c.173-.181.258-.479.258-.895V86.59h.315l-.004 2.054zm-3.516.323a.56.56 0 00-.224-.487 1.38 1.38 0 00-.733-.148h-.854v1.32h.858c.26.024.52-.026.752-.145a.591.591 0 00.201-.526v-.014zm-.151-1.555a.476.476 0 00-.198-.44 1.51 1.51 0 00-.74-.127h-.714v1.198h.789c.244.022.489-.041.691-.18a.562.562 0 00.172-.437v-.014zm.467 1.535a.887.887 0 01-.276.717 1.207 1.207 0 01-.804.233h-1.36V86.59h1.182a1.33 1.33 0 01.832.215.753.753 0 01.266.62.773.773 0 01-.138.48.617.617 0 01-.394.236.775.775 0 01.684.82l.008-.014zm-4.645-.707a1.651 1.651 0 00-.327-1.078 1.116 1.116 0 00-.913-.394 1.09 1.09 0 00-.922.441c-.212.301-.32.664-.305 1.033-.017.364.081.725.282 1.03a1.11 1.11 0 00.96.451 1.09 1.09 0 00.945-.46c.196-.3.294-.652.28-1.01v-.013zm.313 0c.018.427-.108.847-.358 1.194a1.577 1.577 0 01-2.318.07 2.146 2.146 0 01-.035-2.494 1.401 1.401 0 011.152-.52 1.43 1.43 0 011.163.506c.28.359.421.807.396 1.261v-.017zm-3.397-1.4h-1.052v3.053h-.314v-3.035h-1.042v-.268h2.418l-.01.25zm-4.127 3.07h-.366l-1.908-2.894v2.893h-.323V86.59h.355l1.92 2.901v-2.9h.315l.008 3.32zm-3.51-1.656a1.651 1.651 0 00-.326-1.079 1.117 1.117 0 00-.915-.394 1.094 1.094 0 00-.922.442c-.207.3-.31.661-.293 1.026-.017.365.081.726.281 1.031a1.105 1.105 0 00.958.451 1.09 1.09 0 00.928-.463c.2-.3.302-.654.29-1.014zm.314 0c.017.426-.11.847-.358 1.194a1.575 1.575 0 01-2.318.07 1.866 1.866 0 01-.418-1.278 1.886 1.886 0 01.383-1.216 1.401 1.401 0 011.152-.514 1.43 1.43 0 011.163.506c.276.353.417.794.396 1.241v-.004zm-3.809 1.653h-.313V86.59h.313v3.317zm-.985-.88a.847.847 0 01-.394.762 1.458 1.458 0 01-.81.197 1.277 1.277 0 01-.91-.3 1.023 1.023 0 01-.294-.767h.293a.84.84 0 00.286.613c.194.142.43.211.67.197a.904.904 0 00.65-.212.605.605 0 00.197-.456.546.546 0 00-.09-.329.7.7 0 00-.26-.215 6.31 6.31 0 00-.751-.214 2.332 2.332 0 01-.467-.162.904.904 0 01-.312-.252.834.834 0 01-.145-.507.767.767 0 01.285-.61 1.23 1.23 0 01.84-.263 1.16 1.16 0 01.833.29.917.917 0 01.282.696h-.296a.652.652 0 00-.254-.554.888.888 0 00-.555-.166.985.985 0 00-.603.168.552.552 0 00-.225.467.5.5 0 00.079.294.648.648 0 00.254.197l1.245.374a.788.788 0 01.452.757v-.004zm-2.804 0a.85.85 0 01-.395.762 1.464 1.464 0 01-.811.197 1.27 1.27 0 01-.923-.314 1.017 1.017 0 01-.295-.766h.303a.834.834 0 00.288.613c.193.14.43.21.668.197.236.017.47-.06.65-.213a.59.59 0 00.197-.455.56.56 0 00-.088-.33.724.724 0 00-.263-.214 6.19 6.19 0 00-.75-.215 2.265 2.265 0 01-.465-.162.868.868 0 01-.306-.238.834.834 0 01-.148-.507.767.767 0 01.286-.61c.238-.188.537-.281.84-.263.305-.017.606.088.835.29a.916.916 0 01.278.696h-.292a.648.648 0 00-.256-.554.885.885 0 00-.554-.166.974.974 0 00-.603.168.552.552 0 00-.224.467.517.517 0 00.077.294.663.663 0 00.254.197l1.245.374a.788.788 0 01.452.757v-.004zm-3.483-.429l-.652-1.742L3 88.598h1.302zm.81 1.309H4.79l-.384-1.033H2.89l-.395 1.043h-.317l1.305-3.32h.354l1.275 3.31zM1.99 87.495a.54.54 0 00-.262-.499 1.145 1.145 0 00-.581-.128H.32v1.319h.729c.253.02.506-.034.727-.158a.624.624 0 00.213-.534zm.315.033a.788.788 0 01-.433.755 1.752 1.752 0 01-.822.171H.32v1.467H.002v-3.33h1.214c.311-.03.622.067.863.267a.896.896 0 01.226.66v.01zM70.576 4.83h.07c.143 0 .198-.071.198-.219V.723L72.05 3.35a.408.408 0 00.42.305.416.416 0 00.42-.305L74.094.723v3.888c0 .148.063.219.197.219h.058c.141 0 .207-.071.207-.219V.473a.32.32 0 00-.217-.288.317.317 0 00-.126-.016h-.1c-.25 0-.314.113-.42.363l-1.219 2.684-1.21-2.684c-.106-.25-.169-.363-.42-.363h-.114a.317.317 0 00-.348.306v4.138c0 .148.057.219.197.219M66.07.638h1.446v3.973c0 .148.07.219.197.219h.076a.197.197 0 00.213-.219V.638h1.447c.142 0 .22-.07.22-.197V.404c0-.136-.078-.197-.22-.197h-3.38a.197.197 0 00-.219.197v.035c0 .129.077.2.22.2z" fill="#fff"/>
</svg>
